<!DOCTYPE svg PUBLIC "-//W3C//DTD SVG 1.1//EN" "https://www.w3.org/Graphics/SVG/1.1/DTD/svg11.dtd">
<svg xmlns="http://www.w3.org/2000/svg" id="sfn-svg" class="sfn-workflow-graph" width="345" height="383">
    
    
<g transform="translate(54.912498474121094,19.349998474121094)"><g class="nodes"><g class="node-container" transform="translate(81.04583549499512,18.541666984558105)"><g class="node anchor"><circle class="shape" x="-15.891666412353516" y="-8.541666984558105" r="25.891666412353516"/><text class="label"><tspan xml:space="preserve" text-anchor="middle" alignment-baseline="central">Start</tspan></text></g></g><g class="node-container" transform="translate(53.91666793823242,328.95833683013916)"><g class="node anchor"><circle class="shape" x="-12.175000190734863" y="-8.541666984558105" r="22.175000190734863"/><text class="label"><tspan xml:space="preserve" text-anchor="middle" alignment-baseline="central">End</tspan></text></g></g><g class="node-container" transform="translate(81.04583549499512,80.62500095367432)"><g class="node state Task NotYetStarted"><rect class="shape" rx="5" ry="5" x="-60.29999923706055" y="-18.541666984558105" width="120.5999984741211" height="37.08333396911621"/><text class="label"><tspan xml:space="preserve" text-anchor="middle" alignment-baseline="central">BookHotelState</tspan></text></g></g><g class="node-container" transform="translate(133.41666793823242,142.70833492279053)"><g class="node state Task NotYetStarted"><rect class="shape" rx="5" ry="5" x="-69.74166488647461" y="-18.541666984558105" width="139.48332977294922" height="37.08333396911621"/><text class="label"><tspan xml:space="preserve" text-anchor="middle" alignment-baseline="central">BookMuseumState</tspan></text></g></g><g class="node-container" transform="translate(53.91666793823242,266.87500286102295)"><g class="node state Pass NotYetStarted"><rect class="shape" rx="5" ry="5" x="-35.97500038146973" y="-18.541666984558105" width="71.95000076293945" height="37.08333396911621"/><text class="label"><tspan xml:space="preserve" text-anchor="middle" alignment-baseline="central">Fallback</tspan></text></g></g><g class="node-container" transform="translate(53.91666793823242,204.79166889190674)"><g class="node state Task NotYetStarted"><rect class="shape" rx="5" ry="5" x="-53.91666793823242" y="-18.541666984558105" width="107.83333587646484" height="37.08333396911621"/><text class="label"><tspan xml:space="preserve" text-anchor="middle" alignment-baseline="central">NotifySuccess</tspan></text></g></g><g class="node-container" transform="translate(212.91666793823242,204.79166889190674)"><g class="node state Task NotYetStarted"><rect class="shape" rx="5" ry="5" x="-65.08333206176758" y="-18.541666984558105" width="130.16666412353516" height="37.08333396911621"/><text class="label"><tspan xml:space="preserve" text-anchor="middle" alignment-baseline="central">CancelHotelState</tspan></text></g></g></g><g class="edges"><g class="edge"><path class="path" style="fill: none;" marker-end="url(#arrowhead9)" d="M112.32774233813115,99.16666793823242L115.84256327148134,101.25000127156574C119.35738420483156,103.33333460489908,126.38702607153198,107.50000127156574,129.9018470048822,111.66666793823241C133.41666793823242,115.83333460489908,133.41666793823242,120.00000127156575,133.4166679382324,122.08333460489908L133.41666793823242,124.16666793823242"/><defs><marker id="arrowhead9" viewBox="0 0 10 10" refX="9" refY="5" markerUnits="strokeWidth" markerWidth="8" markerHeight="6" orient="auto"><path d="M 0 0 L 10 5 L 0 10 z"/></marker></defs></g><g class="edge"><path class="path" style="fill: none;" marker-end="url(#arrowhead10)" d="M20.74583625793457,95.72533697426246L10.136113802591959,98.38222546825745C-0.47360865275065045,101.03911396225244,-21.69305356343587,106.35289095024243,-32.30277601877848,114.18339060833043C-42.912498474121094,122.01389026641844,-42.912498474121094,132.3611125946045,-42.91249847412109,142.7083349227905C-42.912498474121094,153.05555725097656,-42.912498474121094,163.4027795791626,-42.91249847412109,173.7500019073486C-42.912498474121094,184.09722423553467,-42.912498474121094,194.4444465637207,-42.91249847412109,204.7916688919067C-42.912498474121094,215.13889122009277,-42.912498474121094,225.4861135482788,-32.77013746897379,233.91118090500493C-22.627776463826496,242.3362482617311,-2.3430544535319004,248.83916064699736,7.7993065516153965,252.09061683963046L17.941667556762695,255.3420730322636"/><defs><marker id="arrowhead10" viewBox="0 0 10 10" refX="9" refY="5" markerUnits="strokeWidth" markerWidth="8" markerHeight="6" orient="auto"><path d="M 0 0 L 10 5 L 0 10 z"/></marker></defs></g><g class="edge"><path class="path" style="fill: none;" marker-end="url(#arrowhead11)" d="M81.04583549499512,44.43333339691162L81.0458354949951,45.29166682561238C81.04583549499512,46.15000025431315,81.04583549499512,47.866667111714676,81.0458354949951,50.80833387374878C81.04583549499512,53.750000635782875,81.04583549499512,57.91666730244954,81.0458354949951,60.000000635782875L81.04583549499512,62.08333396911621"/><defs><marker id="arrowhead11" viewBox="0 0 10 10" refX="9" refY="5" markerUnits="strokeWidth" markerWidth="8" markerHeight="6" orient="auto"><path d="M 0 0 L 10 5 L 0 10 z"/></marker></defs></g><g class="edge"><path class="path" style="fill: none;" marker-end="url(#arrowhead12)" d="M85.93009042918138,161.25000190734863L80.59452001402322,163.33333524068195C75.25894959886506,165.4166685740153,64.58780876854874,169.58333524068195,59.252238353390574,173.75000190734863C53.91666793823242,177.9166685740153,53.91666793823242,182.08333524068195,53.916667938232415,184.1666685740153L53.91666793823242,186.25000190734863"/><defs><marker id="arrowhead12" viewBox="0 0 10 10" refX="9" refY="5" markerUnits="strokeWidth" markerWidth="8" markerHeight="6" orient="auto"><path d="M 0 0 L 10 5 L 0 10 z"/></marker></defs></g><g class="edge"><path class="path" style="fill: none;" marker-end="url(#arrowhead13)" d="M180.90324544728347,161.25000190734863L186.2388158624416,163.33333524068195C191.57438627759979,165.4166685740153,202.24552710791608,169.58333524068195,207.58109752307425,173.75000190734863C212.91666793823242,177.9166685740153,212.91666793823242,182.08333524068195,212.9166679382324,184.1666685740153L212.91666793823242,186.25000190734863"/><defs><marker id="arrowhead13" viewBox="0 0 10 10" refX="9" refY="5" markerUnits="strokeWidth" markerWidth="8" markerHeight="6" orient="auto"><path d="M 0 0 L 10 5 L 0 10 z"/></marker></defs></g><g class="edge"><path class="path" style="fill: none;" marker-end="url(#arrowhead14)" d="M53.91666793823242,223.33333587646484L53.916667938232415,225.41666920979813C53.91666793823242,227.50000254313147,53.91666793823242,231.66666920979816,53.916667938232415,235.83333587646484C53.91666793823242,240.0000025431315,53.91666793823242,244.16666920979816,53.916667938232415,246.2500025431315L53.91666793823242,248.33333587646484"/><defs><marker id="arrowhead14" viewBox="0 0 10 10" refX="9" refY="5" markerUnits="strokeWidth" markerWidth="8" markerHeight="6" orient="auto"><path d="M 0 0 L 10 5 L 0 10 z"/></marker></defs></g><g class="edge"><path class="path" style="fill: none;" marker-end="url(#arrowhead15)" d="M212.91666793823242,223.33333587646484L212.9166679382324,225.41666920979813C212.91666793823242,227.50000254313147,212.91666793823242,231.66666920979816,192.41250133514401,237.7530434958923C171.90833473205566,243.83941778198644,130.9000015258789,251.84549968750804,110.39583492279053,255.84854064026885L89.89166831970215,259.85158159302966"/><defs><marker id="arrowhead15" viewBox="0 0 10 10" refX="9" refY="5" markerUnits="strokeWidth" markerWidth="8" markerHeight="6" orient="auto"><path d="M 0 0 L 10 5 L 0 10 z"/></marker></defs></g><g class="edge"><path class="path" style="fill: none;" marker-end="url(#arrowhead16)" d="M53.91666793823242,285.41666984558105L53.916667938232415,287.50000317891437C53.91666793823242,289.5833365122477,53.91666793823242,293.75000317891437,53.916667938232415,297.31111431121826C53.91666793823242,300.8722254435221,53.91666793823242,303.8277810414632,53.916667938232415,305.3055588404337L53.91666793823242,306.7833366394043"/><defs><marker id="arrowhead16" viewBox="0 0 10 10" refX="9" refY="5" markerUnits="strokeWidth" markerWidth="8" markerHeight="6" orient="auto"><path d="M 0 0 L 10 5 L 0 10 z"/></marker></defs></g></g></g><style xmlns="http://www.w3.org/1999/xhtml">.node &gt; .shape {stroke: #555555;stroke-width: 0.6px;fill: #FFFFFF;} path {stroke: #555;background-color: #555;stroke-width: 1px;} .node.state.NotYetStarted &gt; .shape,.node.state.Container &gt; .shape {stroke-dasharray: 5 2;} .node.state.Failed &gt; .shape,rect.legend.Failed {fill: #DE322F;} .node.state.CaughtError &gt; .shape,rect.legend.CaughtError {fill: #FFA500;} .node.state.Succeeded &gt; .shape,rect.legend.Succeeded {fill: #2BD62E;} .node.state.InProgress &gt; .shape,rect.legend.InProgress {fill: #53c9ed;} .node.state.Cancelled &gt; .shape,rect.legend.Cancelled {fill: #dddddd;} .node.anchor &gt; .shape {fill: #FFDA75;} .node.state.hovered:not(.selected):not(.NotYetStarted) &gt; .shape,.node.selected &gt; .shape {stroke: #555555;stroke-width: 2px;} .node.state.Container.Failed &gt; .shape {fill: #EE9592;} .node.state.Container.CaughtError &gt; .shape {fill: #FFD27F;} .node.state.Container.Succeeded &gt; .shape {fill: #91EA9A;} .node.state.Container.InProgress &gt; .shape {fill :#A9E4F7;} .node.state.Container.Cancelled &gt; .shape {fill: #EEEEEE;} marker {fill: #555555;} .node.anchor,.node.state.NotYetStarted {cursor: default;} .node.state {cursor: pointer;} tspan .label {font-weight: normal;font-size: 12px;text-shadow: none;} </style></svg>